<svg xmlns="http://www.w3.org/2000/svg" viewBox="0 0 165.54 43.26">
  <path fill="#390963" d="M7.92,42.6H0V14.16H7.92Z"/>
  <path fill="#4d0d6c" d="M17.04,42.6V25.32c0-3.42-2.22-3.78-4.26-3.48l-3.12.54V17l3.9-3.24a5.68,5.68,0,0,1,1.68-.24c6.18,0,9.72,3.6,9.72,8.94V42.6Z"/>
  <path fill="#5f136e" d="M34.14,42.6V25.32c0-3.42-2.28-3.78-4.32-3.48l-3.3.54V17.22l4.14-3.48a5.31,5.31,0,0,1,1.62-.24c6.48,0,9.78,3.84,9.78,9.12v20Z"/>
  <path fill="#721a6e" d="M54.66,24.9v4.56H46.74V23.82c0-5.88,3.78-10.32,12.72-10.32s12.72,4.44,12.72,10.32v5.64H64.26V24.9c0-3.72-1.44-5.28-4.8-5.28S54.66,21.18,54.66,24.9Z"/>
  <path fill="#85216b" d="M64.26,31.8v-.54h7.92v2c0,7.74-6.66,10-12.72,10S46.74,41,46.74,33.24v-2h7.92v.54c0,3.78,1.44,5.34,4.8,5.34S64.26,35.58,64.26,31.8Z"/>
  <path fill="#972766" d="M84.6,21.42h-8v-.06c0-6.06,4.26-7.86,11-7.86a69.63,69.63,0,0,1,9.42.6v6.66s-5.76-.66-8.46-.66C86.1,20.1,85,20.52,84.6,21.42Z"/>
  <path fill="#a92e5e" d="M98.7,35.1c0,6.06-4.44,8.16-10.5,8.16H86.4V36.6c2.7,0,4.38-.06,4.38-2.34v-.54c0-1.14-.66-1.8-2.1-2l-5.46-.66a7.39,7.39,0,0,1-6.66-7.44V23h7.92c.06,1,.78,1.56,2.16,1.74l5.4.66a7.39,7.39,0,0,1,6.66,7.44Z"/>
  <path fill="#bc3754" d="M84.7,36.6v6.6c-4.26-.18-8-.6-8-.6V35.76S80.88,36.42,84.66,36.6Z"/>
  <path fill="#cb4149" d="M102.06,33.24c0-4.26,2.46-8,10-8.46l4.74-.3v5.58l-4.44.3c-1.38.12-2.76.78-2.76,2.4v.72c0,1.74,1,2.34,2.4,2.34a11.36,11.36,0,0,0,2.94-.54l1.86-.54v5l-4,3.24a5.68,5.68,0,0,1-1.68.24c-5.64,0-9.06-3.3-9.06-7.68Z"/>
  <path fill="#da4e3c" d="M118.5,23.16c0-1.68-1.38-2.7-4.5-2.7-3.42,0-9.6.54-9.6.54V14.1s8.76-.6,10.74-.6c6.42,0,11.28,1.86,11.28,9.6V42.6H118.5Z"/>
  <path fill="#e65d2f" d="M131.76,8.64V0h7.92V8.64Z"/>
  <path fill="#f06f20" d="M131.76,42.64V14.16h7.92V42.6Z"/>
  <path fill="#f78410" d="M152.94,29.46H145V23.82c0-5.88,2.76-10.32,11.7-10.32,2,0,8.28.6,8.28.6v6.3s-4.56-.6-7.08-.6c-2.94,0-5,.78-5,5.28Z"/>
  <path fill="#fb9706" d="M156.94,43.26c-6.42,0-11.94-2.22-11.94-10v-2h7.92V32c0,4.56,1.44,4.92,5.28,4.92,2.52,0,7.32-.66,7.32-.66v6.18A47.19,47.19,0,0,1,157,43.26Z"/>
</svg>